<svg width="397" height="548" viewBox="0 0 397 548" fill="none" xmlns="http://www.w3.org/2000/svg">
<g opacity="0.95" filter="url(#filter0_d_138_522)">
<path d="M10 31C10 22.1634 17.1634 15 26 15H371C379.837 15 387 22.1634 387 31V543H10V31Z" fill="white"/>
<path d="M70.504 207L66.509 196.358H66.441C66.4637 196.585 66.4807 196.874 66.492 197.225C66.5147 197.576 66.5317 197.962 66.543 198.381C66.5543 198.789 66.56 199.208 66.56 199.639V207H65.149V194.862H67.41L71.15 204.807H71.218L75.026 194.862H77.27V207H75.757V199.537C75.757 199.14 75.7627 198.749 75.774 198.364C75.7853 197.967 75.8023 197.599 75.825 197.259C75.8477 196.908 75.8647 196.613 75.876 196.375H75.808L71.762 207H70.504ZM88.2899 202.427C88.2899 203.186 88.1879 203.861 87.9839 204.45C87.7912 205.028 87.5079 205.521 87.1339 205.929C86.7712 206.337 86.3235 206.649 85.7909 206.864C85.2695 207.068 84.6859 207.17 84.0399 207.17C83.4392 207.17 82.8838 207.068 82.3738 206.864C81.8638 206.649 81.4219 206.337 81.0479 205.929C80.6739 205.521 80.3792 205.028 80.1638 204.45C79.9598 203.861 79.8578 203.186 79.8578 202.427C79.8578 201.418 80.0279 200.568 80.3679 199.877C80.7079 199.174 81.1952 198.642 81.8298 198.279C82.4645 197.905 83.2182 197.718 84.0909 197.718C84.9182 197.718 85.6435 197.905 86.2668 198.279C86.9015 198.642 87.3945 199.174 87.7458 199.877C88.1085 200.568 88.2899 201.418 88.2899 202.427ZM81.4048 202.427C81.4048 203.141 81.4955 203.764 81.6768 204.297C81.8695 204.818 82.1642 205.221 82.5609 205.504C82.9575 205.787 83.4619 205.929 84.0739 205.929C84.6859 205.929 85.1902 205.787 85.5869 205.504C85.9835 205.221 86.2725 204.818 86.4539 204.297C86.6465 203.764 86.7429 203.141 86.7429 202.427C86.7429 201.702 86.6465 201.084 86.4539 200.574C86.2612 200.064 85.9665 199.673 85.5699 199.401C85.1845 199.118 84.6802 198.976 84.0569 198.976C83.1275 198.976 82.4532 199.282 82.0338 199.894C81.6145 200.506 81.4048 201.35 81.4048 202.427ZM94.1798 197.718C94.9618 197.718 95.6305 197.888 96.1858 198.228C96.7525 198.568 97.1831 199.05 97.4778 199.673C97.7838 200.285 97.9368 201.005 97.9368 201.832V202.733H91.6978C91.7205 203.764 91.9812 204.552 92.4798 205.096C92.9898 205.629 93.6982 205.895 94.6048 205.895C95.1828 205.895 95.6928 205.844 96.1348 205.742C96.5882 205.629 97.0528 205.47 97.5288 205.266V206.575C97.0642 206.779 96.6052 206.926 96.1518 207.017C95.6985 207.119 95.1602 207.17 94.5368 207.17C93.6755 207.17 92.9105 206.994 92.2418 206.643C91.5845 206.292 91.0688 205.77 90.6948 205.079C90.3322 204.376 90.1508 203.521 90.1508 202.512C90.1508 201.515 90.3152 200.659 90.6438 199.945C90.9838 199.231 91.4541 198.681 92.0548 198.296C92.6668 197.911 93.3751 197.718 94.1798 197.718ZM94.1628 198.942C93.4488 198.942 92.8822 199.174 92.4628 199.639C92.0548 200.092 91.8111 200.727 91.7318 201.543H96.3728C96.3728 201.022 96.2935 200.568 96.1348 200.183C95.9762 199.798 95.7325 199.497 95.4038 199.282C95.0865 199.055 94.6728 198.942 94.1628 198.942ZM115.128 197.888V207H113.785V201.186C113.785 200.948 113.791 200.699 113.802 200.438C113.825 200.177 113.848 199.922 113.87 199.673H113.819L110.844 207H109.586L106.696 199.673H106.645C106.668 199.922 106.679 200.177 106.679 200.438C106.691 200.699 106.696 200.965 106.696 201.237V207H105.353V197.888H107.342L110.215 205.215L113.139 197.888H115.128ZM121.556 197.718C122.338 197.718 123.006 197.888 123.562 198.228C124.128 198.568 124.559 199.05 124.854 199.673C125.16 200.285 125.313 201.005 125.313 201.832V202.733H119.074C119.096 203.764 119.357 204.552 119.856 205.096C120.366 205.629 121.074 205.895 121.981 205.895C122.559 205.895 123.069 205.844 123.511 205.742C123.964 205.629 124.429 205.47 124.905 205.266V206.575C124.44 206.779 123.981 206.926 123.528 207.017C123.074 207.119 122.536 207.17 121.913 207.17C121.051 207.17 120.286 206.994 119.618 206.643C118.96 206.292 118.445 205.77 118.071 205.079C117.708 204.376 117.527 203.521 117.527 202.512C117.527 201.515 117.691 200.659 118.02 199.945C118.36 199.231 118.83 198.681 119.431 198.296C120.043 197.911 120.751 197.718 121.556 197.718ZM121.539 198.942C120.825 198.942 119.5 247.5 119.839 199.639C119.431 200.092 119.187 200.727 119.108 201.543H123.749C123.749 201.022 123.669 200.568 123.511 200.183C123.352 199.798 123.108 199.497 122.78 199.282C122.462 199.055 122.049 198.942 121.539 198.942ZM131.288 207.17C130.483 207.17 129.763 207.006 129.129 206.677C128.505 206.348 128.012 205.838 127.65 205.147C127.298 204.456 127.122 203.572 127.122 202.495C127.122 201.373 127.31 200.461 127.684 199.758C128.058 199.055 128.562 198.54 129.197 198.211C129.843 197.882 130.573 197.718 131.389 197.718C131.854 197.718 132.302 197.769 132.732 197.871C133.163 197.962 133.514 198.075 133.786 198.211L133.327 199.452C133.055 199.35 132.738 199.254 132.376 199.163C132.013 199.072 131.673 199.027 131.355 199.027C130.743 199.027 130.239 199.157 129.842 199.418C129.446 199.679 129.151 200.064 128.958 200.574C128.766 201.084 128.669 201.719 128.669 202.478C128.669 203.203 128.766 203.821 128.958 204.331C129.151 204.841 129.44 205.226 129.826 205.487C130.211 205.748 130.693 205.878 131.271 205.878C131.769 205.878 132.205 205.827 132.579 205.725C132.965 205.623 133.316 205.498 133.633 205.351V206.677C133.327 206.836 132.987 206.955 132.613 207.034C132.251 207.125 131.809 207.17 131.288 207.17ZM142.09 199.146H139.115V207H137.636V199.146H134.695V197.888H142.09V199.146ZM151.641 202.427C151.641 203.186 151.539 203.861 151.335 204.45C151.143 205.028 150.859 205.521 150.485 205.929C150.123 206.337 149.675 206.649 149.142 206.864C148.621 207.068 148.037 207.17 147.391 207.17C146.791 207.17 146.235 207.068 145.725 206.864C145.215 206.649 144.773 206.337 144.399 205.929C144.025 205.521 143.731 205.028 143.515 204.45C143.311 203.861 143.209 203.186 143.209 202.427C143.209 201.418 143.379 200.568 143.719 199.877C144.059 199.174 144.547 198.642 145.181 198.279C145.816 197.905 146.57 197.718 147.442 197.718C148.27 197.718 148.995 197.905 149.618 198.279C150.253 198.642 150.746 199.174 151.097 199.877C151.46 200.568 151.641 201.418 151.641 202.427ZM144.756 202.427C144.756 203.141 144.847 203.764 145.028 204.297C145.221 204.818 145.516 205.221 145.912 205.504C146.309 205.787 146.813 205.929 147.425 205.929C148.037 205.929 148.542 205.787 148.938 205.504C149.335 205.221 149.624 204.818 149.805 204.297C149.998 203.764 150.094 203.141 150.094 202.427C150.094 201.702 149.998 201.084 149.805 200.574C149.613 200.064 149.318 199.673 148.921 199.401C148.536 199.118 148.032 198.976 147.408 198.976C146.479 198.976 145.805 199.282 145.385 199.894C144.966 200.506 144.756 201.35 144.756 202.427ZM161.713 197.888V207H160.217V199.163H155.508V207H154.012V197.888H161.713ZM172.543 202.427C172.543 203.186 172.441 203.861 172.237 204.45C172.044 205.028 171.761 205.521 171.387 205.929C171.024 206.337 170.576 206.649 170.044 206.864C169.522 207.068 168.939 207.17 168.293 207.17C167.692 207.17 167.137 207.068 166.627 206.864C166.117 206.649 165.675 206.337 165.301 205.929C164.927 205.521 164.632 205.028 164.417 204.45C164.213 203.861 164.111 203.186 164.111 202.427C164.111 201.418 164.281 200.568 164.621 199.877C164.961 199.174 165.448 198.642 166.083 198.279C166.717 197.905 167.471 197.718 168.344 197.718C169.171 197.718 169.896 197.905 170.52 198.279C171.154 198.642 171.647 199.174 171.999 199.877C172.361 200.568 172.543 201.418 172.543 202.427ZM165.658 202.427C165.658 203.141 165.748 203.764 165.93 204.297C166.122 204.818 166.417 205.221 166.814 205.504C167.21 205.787 167.715 205.929 168.327 205.929C168.939 205.929 169.443 205.787 169.84 205.504C170.236 205.221 170.525 204.818 170.707 204.297C170.899 203.764 170.996 203.141 170.996 202.427C170.996 201.702 170.899 201.084 170.707 200.574C170.514 200.064 170.219 199.673 169.823 199.401C169.437 199.118 168.933 198.976 168.31 198.976C167.38 198.976 166.706 199.282 166.287 199.894C165.867 200.506 165.658 201.35 165.658 202.427ZM181.85 207H180.337V199.129H177.651C177.537 200.568 177.396 201.798 177.226 202.818C177.056 203.827 176.84 204.648 176.58 205.283C176.319 205.918 176.007 206.382 175.645 206.677C175.282 206.972 174.857 207.119 174.37 207.119C174.222 207.119 174.075 207.108 173.928 207.085C173.792 207.074 173.678 207.045 173.588 207V205.878C173.656 205.901 173.729 205.918 173.809 205.929C173.888 205.94 173.967 205.946 174.047 205.946C174.296 205.946 174.523 205.844 174.727 205.64C174.931 205.436 175.112 205.124 175.271 204.705C175.441 204.286 175.594 203.759 175.73 203.124C175.866 202.478 175.985 201.719 176.087 200.846C176.189 199.973 176.279 198.987 176.359 197.888H181.85V207ZM192.664 202.427C192.664 203.186 192.562 203.861 192.358 204.45C192.165 205.028 191.882 205.521 191.508 205.929C191.145 206.337 190.698 206.649 190.165 206.864C189.644 207.068 189.06 207.17 188.414 207.17C187.813 207.17 187.258 207.068 186.748 206.864C186.238 206.649 185.796 206.337 185.422 205.929C185.048 205.521 184.753 205.028 184.538 204.45C184.334 203.861 184.232 203.186 184.232 202.427C184.232 201.418 184.402 200.568 184.742 199.877C185.082 199.174 185.569 198.642 186.204 198.279C186.839 197.905 187.592 197.718 188.465 197.718C189.292 197.718 190.018 197.905 190.641 198.279C191.276 198.642 191.769 199.174 192.12 199.877C192.483 200.568 192.664 201.418 192.664 202.427ZM185.779 202.427C185.779 203.141 185.87 203.764 186.051 204.297C186.244 204.818 186.538 205.221 186.935 205.504C187.332 205.787 187.836 205.929 188.448 205.929C189.06 205.929 189.564 205.787 189.961 205.504C190.358 205.221 190.647 204.818 190.828 204.297C191.021 203.764 191.117 203.141 191.117 202.427C191.117 201.702 191.021 201.084 190.828 200.574C190.635 200.064 190.341 199.673 189.944 199.401C189.559 199.118 189.054 198.976 188.431 198.976C187.502 198.976 186.827 199.282 186.408 199.894C185.989 200.506 185.779 201.35 185.779 202.427ZM205.634 197.888L201.877 202.308L205.957 207H204.257L200.313 202.376V207H198.919V202.376L194.975 207H193.275L197.355 202.308L193.598 197.888H195.23L198.919 202.308V197.888H200.313V202.308L204.019 197.888H205.634ZM210.64 197.718C211.422 197.718 212.09 197.888 212.646 198.228C213.212 198.568 213.643 199.05 213.938 199.673C214.244 200.285 214.397 201.005 214.397 201.832V202.733H208.158C208.18 203.764 208.441 204.552 208.94 205.096C209.45 205.629 210.158 205.895 211.065 205.895C211.643 205.895 212.153 205.844 212.595 205.742C213.048 205.629 213.513 205.47 213.989 205.266V206.575C213.524 206.779 213.065 206.926 212.612 207.017C212.158 207.119 211.62 207.17 210.997 207.17C210.135 207.17 209.37 206.994 208.702 206.643C208.044 206.292 207.529 205.77 207.155 205.079C206.792 204.376 206.611 203.521 206.611 202.512C206.611 201.515 206.775 200.659 207.104 199.945C207.444 199.231 207.914 198.681 208.515 198.296C209.127 197.911 209.835 197.718 210.64 197.718ZM210.623 198.942C209.909 198.942 209.342 199.174 208.923 199.639C208.515 200.092 208.271 200.727 208.192 201.543H212.833C212.833 201.022 212.753 200.568 212.595 200.183C212.436 199.798 212.192 199.497 211.864 199.282C211.546 199.055 211.133 198.942 210.623 198.942ZM218.212 197.888V201.679H223.159V197.888H224.655V207H223.159V202.937H218.212V207H216.716V197.888H218.212ZM228.952 203.447C228.952 203.549 228.946 203.696 228.935 203.889C228.935 204.07 228.929 204.269 228.918 204.484C228.906 204.688 228.895 204.886 228.884 205.079C228.872 205.26 228.861 205.408 228.85 205.521L233.729 197.888H235.565V207H234.171V201.628C234.171 201.447 234.171 201.209 234.171 200.914C234.182 200.619 234.193 200.33 234.205 200.047C234.216 199.752 234.227 199.531 234.239 199.384L229.394 207H227.541V197.888H228.952V203.447ZM241.984 197.718C242.766 197.718 243.434 197.888 243.99 198.228C244.556 198.568 244.987 199.05 245.282 199.673C245.588 200.285 245.741 201.005 245.741 201.832V202.733H239.502C239.524 203.764 239.785 204.552 240.284 205.096C240.794 205.629 241.502 205.895 242.409 205.895C242.987 205.895 243.497 205.844 243.939 205.742C244.392 205.629 244.857 205.47 245.333 205.266V206.575C244.868 206.779 244.409 206.926 243.956 207.017C243.502 207.119 242.964 207.17 242.341 207.17C241.479 207.17 240.714 206.994 240.046 206.643C239.388 206.292 238.873 205.77 238.499 205.079C238.136 204.376 237.955 203.521 237.955 202.512C237.955 201.515 238.119 200.659 238.448 199.945C238.788 199.231 239.258 198.681 239.859 198.296C240.471 197.911 241.179 197.718 241.984 197.718ZM241.967 198.942C241.253 198.942 240.686 199.174 240.267 199.639C239.859 200.092 239.615 200.727 239.536 201.543H244.177C244.177 201.022 244.097 200.568 243.939 200.183C243.78 199.798 243.536 199.497 243.208 199.282C242.89 199.055 242.477 198.942 241.967 198.942Z" fill="white"/>
</g>
<defs>
<filter id="filter0_d_138_522" x="0" y="0" width="397" height="548" filterUnits="userSpaceOnUse" color-interpolation-filters="sRGB">
<feFlood flood-opacity="0" result="BackgroundImageFix"/>
<feColorMatrix in="SourceAlpha" type="matrix" values="0 0 0 0 0 0 0 0 0 0 0 0 0 0 0 0 0 0 127 0" result="hardAlpha"/>
<feOffset dy="-5"/>
<feGaussianBlur stdDeviation="5"/>
<feColorMatrix type="matrix" values="0 0 0 0 0 0 0 0 0 0 0 0 0 0 0 0 0 0 0.1 0"/>
<feBlend mode="normal" in2="BackgroundImageFix" result="effect1_dropShadow_138_522"/>
<feBlend mode="normal" in="SourceGraphic" in2="effect1_dropShadow_138_522" result="shape"/>
</filter>
</defs>
</svg>
