<svg width="50" height="29" viewBox="0 0 50 29" fill="none" xmlns="http://www.w3.org/2000/svg">
<path fill-rule="evenodd" clip-rule="evenodd" d="M35.2951 0.337863C35.1048 0.123001 34.8316 0 34.5446 0H28.0997L24.1635 3.82925C17.6546 5.40935 12.9847 10.0575 12.7515 10.2946L12.5477 10.4998C12.1863 10.6891 11.0451 11.1416 7.55688 11.8847C2.6093 12.9404 1.6655 14.6484 1.48722 15.309C1.09227 15.6284 0.452627 16.3904 0.35129 17.2869C0.269829 18.0017 0.0853757 18.2941 0.0853757 18.2933L0 18.4126V23.4585L0.00963676 23.5505C0.27781 24.8905 1.55935 25.5994 3.71557 25.5994C4.40325 25.5994 4.91911 25.5234 4.89909 25.5234C4.91723 25.5223 5.02182 25.5201 5.20376 25.5162C5.32238 25.5137 5.47388 25.5105 5.65572 25.5064C5.60859 25.3653 5.56568 25.2225 5.52864 25.0763C5.4928 24.9353 5.45998 24.7934 5.43468 24.648C5.37385 24.3057 5.33967 23.9534 5.33967 23.5918C5.33967 20.4909 7.6677 17.968 10.5292 17.968C13.3907 17.968 15.7189 20.4909 15.7189 23.5918C15.7189 23.8723 15.6936 24.1443 15.6573 24.4138C15.6375 24.56 15.6144 24.7053 15.584 24.8472C15.5528 24.9942 15.5202 25.1396 15.4787 25.2824C21.9592 25.1319 30.2052 24.9334 36.5917 24.7594C36.5635 24.6175 36.5456 24.4737 36.5277 24.3283C36.5098 24.1847 36.4995 24.0412 36.4926 23.8959C36.4922 23.8871 36.4918 23.8782 36.4913 23.8693C36.4908 23.8606 36.4903 23.8518 36.4898 23.8431L36.4869 23.7947C36.4827 23.7276 36.4786 23.6605 36.4786 23.5918C36.4786 20.4909 38.8068 17.968 41.6681 17.968C44.4892 17.968 46.7877 20.4216 46.8517 23.4634C46.8517 23.4843 46.8532 23.5055 46.8547 23.5267V23.5268V23.5268C46.8553 23.5351 46.8559 23.5434 46.8564 23.5517C46.8572 23.565 46.8578 23.5784 46.8578 23.5918C46.8578 23.6738 46.8526 23.7543 46.8473 23.8352L46.8472 23.8356C46.8455 23.8621 46.8437 23.8887 46.8422 23.9153C46.8344 24.0691 46.8203 24.2219 46.8017 24.3724C48.021 24.1544 48.938 23.4581 49.469 22.3319C50.3772 20.4064 49.9142 17.7991 49.5882 17.2455C49.4132 16.9477 49.3259 15.7889 49.2484 14.7607V14.7607L49.2484 14.7606L49.247 14.7419L49.2454 14.721C49.1756 13.809 49.0969 12.78 48.9444 11.8912C48.8376 11.2648 48.6028 10.4307 47.8092 10.4307C47.7297 10.4307 47.65 10.4391 47.5714 10.448L47.5432 10.451C47.5025 10.4555 47.4579 10.4605 47.3928 10.4618C47.3912 10.4618 47.3654 10.4347 47.3328 10.3318C47.0997 9.60845 46.122 8.70873 44.8683 7.60831C44.5595 7.33826 44.1898 7.01307 44.0323 6.84533C44.0901 6.41195 44.0816 5.87969 43.8031 5.51288C43.6738 5.34172 43.4305 5.13726 43.011 5.13726C42.9494 5.13726 42.8839 5.14134 42.7381 5.15538C42.4355 5.15538 41.829 5.0206 40.9892 4.83246L40.9837 4.83125C40.4129 4.7043 39.7128 4.54861 38.8807 4.38556L35.2951 0.337863ZM19.7198 11.1684C19.7471 11.1632 19.7744 11.1579 19.8048 11.1567C21.281 11.0969 21.5317 12.5444 21.5317 12.5444L28.758 12.2244V5.88449C27.0532 5.98501 25.6814 6.15345 24.9293 6.41698C23.2766 6.99674 21.3547 8.15354 19.6589 9.3185V11.1784C19.68 11.1761 19.6999 11.1723 19.7198 11.1684L19.7198 11.1684ZM38.9937 10.5817C38.7415 11.0566 38.2822 11.3582 37.7773 11.381L31.8346 11.644L31.3021 5.88767C33.758 5.96863 35.8098 6.06861 36.8492 6.12947C37.33 6.15718 37.7638 6.45765 37.9879 6.91951L39.0193 9.04022C39.2555 9.52544 39.2454 10.1079 38.9937 10.5817Z" fill="#242E42"/>
<path d="M6.50172 25.4863C7.1781 27.1711 8.72541 28.3497 10.5288 28.3497C12.397 28.3497 13.9883 27.0831 14.623 25.3021C14.6732 25.1602 14.7181 25.0148 14.7564 24.8661C14.793 24.7242 14.8234 24.5788 14.8484 24.4318C14.8928 24.159 14.9208 23.8783 14.9208 23.5913C14.9208 20.9628 12.9552 18.8326 10.5296 18.8326C8.10399 18.8326 6.13839 20.9628 6.13839 23.5913C6.13839 23.9478 6.17739 24.2949 6.24635 24.6295C6.27556 24.7749 6.31065 24.9177 6.35311 25.057C6.39647 25.2042 6.44601 25.346 6.50172 25.4863Z" fill="#242E42"/>
<path d="M37.4079 24.736C37.8819 26.8094 39.6068 28.3496 41.6666 28.3496C43.8201 28.3496 45.6081 26.6674 45.9822 24.4511C46.0063 24.3075 46.025 24.163 46.0383 24.0151C46.05 23.875 46.0578 23.7346 46.0578 23.591C46.0578 23.5876 46.0578 23.5842 46.0578 23.5799C46.0532 20.9575 44.0883 18.8324 41.6666 18.8324C39.2418 18.8324 37.2754 20.9625 37.2754 23.591C37.2754 23.6865 37.284 23.7793 37.2887 23.874C37.2965 24.0202 37.3098 24.1636 37.3299 24.3057C37.3503 24.4513 37.3768 24.5949 37.4079 24.736Z" fill="#242E42"/>
</svg>
