<svg width="291" height="235" viewBox="0 0 291 235" fill="none" xmlns="http://www.w3.org/2000/svg">
<path fill-rule="evenodd" clip-rule="evenodd" d="M259.538 33.9195C260.719 33.9195 260.72 31.9482 259.538 31.9482C258.357 31.9482 258.355 33.9195 259.538 33.9195Z" fill="#F2F8FD"/>
<path fill-rule="evenodd" clip-rule="evenodd" d="M267.487 58.8903C268.668 58.8903 268.67 56.9189 267.487 56.9189C266.306 56.9189 266.304 58.8903 267.487 58.8903Z" fill="#F2F8FD"/>
<path fill-rule="evenodd" clip-rule="evenodd" d="M279.105 87.1467C280.286 87.1467 280.288 85.1754 279.105 85.1754C277.924 85.1754 277.923 87.1467 279.105 87.1467Z" fill="#F2F8FD"/>
<path fill-rule="evenodd" clip-rule="evenodd" d="M250.366 72.0328C251.547 72.0328 251.549 70.0614 250.366 70.0614C249.185 70.0614 249.183 72.0328 250.366 72.0328Z" fill="#F2F8FD"/>
<path fill-rule="evenodd" clip-rule="evenodd" d="M288.889 35.2338C290.069 35.2338 290.071 33.2624 288.889 33.2624C287.708 33.2624 287.706 35.2338 288.889 35.2338Z" fill="#F2F8FD"/>
<path fill-rule="evenodd" clip-rule="evenodd" d="M287.054 19.4628C288.235 19.4628 288.237 17.4914 287.054 17.4914C285.873 17.4914 285.872 19.4628 287.054 19.4628Z" fill="#F2F8FD"/>
<path fill-rule="evenodd" clip-rule="evenodd" d="M189.486 32.2319C190.667 32.2319 190.669 30.2605 189.486 30.2605C188.306 30.2605 188.304 32.2319 189.486 32.2319Z" fill="#F2F8FD"/>
<path fill-rule="evenodd" clip-rule="evenodd" d="M214.491 28.9966C215.672 28.9966 215.674 27.0252 214.491 27.0252C213.311 27.0252 213.309 28.9966 214.491 28.9966Z" fill="#F2F8FD"/>
<path fill-rule="evenodd" clip-rule="evenodd" d="M230.495 43.0163C231.676 43.0163 231.677 41.0449 230.495 41.0449C229.314 41.0449 229.312 43.0163 230.495 43.0163Z" fill="#F2F8FD"/>
<path fill-rule="evenodd" clip-rule="evenodd" d="M244.498 4.19242C245.678 4.19242 245.68 2.22104 244.498 2.22104C243.317 2.22104 243.315 4.19242 244.498 4.19242Z" fill="#F2F8FD"/>
<path fill-rule="evenodd" clip-rule="evenodd" d="M272.379 150.231C273.56 150.231 273.561 148.259 272.379 148.259C271.198 148.259 271.196 150.231 272.379 150.231Z" fill="#F2F8FD"/>
<path fill-rule="evenodd" clip-rule="evenodd" d="M269.933 119.346C271.114 119.346 271.116 117.374 269.933 117.374C268.752 117.374 268.75 119.346 269.933 119.346Z" fill="#F2F8FD"/>
<path fill-rule="evenodd" clip-rule="evenodd" d="M236.914 141.688C238.094 141.688 238.096 139.717 236.914 139.717C235.733 139.717 235.731 141.688 236.914 141.688Z" fill="#F2F8FD"/>
<path fill-rule="evenodd" clip-rule="evenodd" d="M249.143 100.946C250.324 100.946 250.325 98.9749 249.143 98.9749C247.962 98.9749 247.96 100.946 249.143 100.946Z" fill="#F2F8FD"/>
<path fill-rule="evenodd" clip-rule="evenodd" d="M287.054 125.26C288.235 125.26 288.237 123.289 287.054 123.289C285.873 123.289 285.872 125.26 287.054 125.26Z" fill="#F2F8FD"/>
<path fill-rule="evenodd" clip-rule="evenodd" d="M276.048 214.629C277.228 214.629 277.23 212.658 276.048 212.658C274.867 212.658 274.865 214.629 276.048 214.629Z" fill="#F2F8FD"/>
<path fill-rule="evenodd" clip-rule="evenodd" d="M228.964 227.114C230.145 227.114 230.147 225.143 228.964 225.143C227.784 225.143 227.782 227.114 228.964 227.114Z" fill="#F2F8FD"/>
<path fill-rule="evenodd" clip-rule="evenodd" d="M277.27 179.144C278.451 179.144 278.453 177.173 277.27 177.173C276.09 177.173 276.088 179.144 277.27 179.144Z" fill="#F2F8FD"/>
<path fill-rule="evenodd" clip-rule="evenodd" d="M262.595 197.544C263.776 197.544 263.778 195.572 262.595 195.572C261.415 195.572 261.413 197.544 262.595 197.544Z" fill="#F2F8FD"/>
<path fill-rule="evenodd" clip-rule="evenodd" d="M263.818 235C264.999 235 265.001 233.029 263.818 233.029C262.638 233.029 262.636 235 263.818 235Z" fill="#F2F8FD"/>
<path fill-rule="evenodd" clip-rule="evenodd" d="M250.366 219.229C251.547 219.229 251.549 217.258 250.366 217.258C249.185 217.258 249.183 219.229 250.366 219.229Z" fill="#F2F8FD"/>
<path fill-rule="evenodd" clip-rule="evenodd" d="M217.958 219.229C219.139 219.229 219.141 217.258 217.958 217.258C216.777 217.258 216.775 219.229 217.958 219.229Z" fill="#F2F8FD"/>
<path fill-rule="evenodd" clip-rule="evenodd" d="M244.863 125.917C246.043 125.917 246.045 123.946 244.863 123.946C243.682 123.946 243.68 125.917 244.863 125.917Z" fill="#F2F8FD"/>
<path fill-rule="evenodd" clip-rule="evenodd" d="M185.486 5.27088C186.666 5.27088 186.668 3.29951 185.486 3.29951C184.305 3.29951 184.303 5.27088 185.486 5.27088Z" fill="#F2F8FD"/>
<path fill-rule="evenodd" clip-rule="evenodd" d="M84.6574 26.6911C85.8375 26.6911 85.84 24.7197 84.6574 24.7197C83.4773 24.7197 83.4748 26.6911 84.6574 26.6911Z" fill="#F2F8FD"/>
<path fill-rule="evenodd" clip-rule="evenodd" d="M98.7213 39.8337C99.9015 39.8337 99.9039 37.8623 98.7213 37.8623C97.5412 37.8623 97.5387 39.8337 98.7213 39.8337Z" fill="#F2F8FD"/>
<path fill-rule="evenodd" clip-rule="evenodd" d="M118.288 17.4914C119.468 17.4914 119.471 15.52 118.288 15.52C117.108 15.52 117.106 17.4914 118.288 17.4914Z" fill="#F2F8FD"/>
<path fill-rule="evenodd" clip-rule="evenodd" d="M127.46 30.9624C128.641 30.9624 128.643 28.9911 127.46 28.9911C126.28 28.9911 126.278 30.9624 127.46 30.9624Z" fill="#F2F8FD"/>
<path fill-rule="evenodd" clip-rule="evenodd" d="M32.0709 31.291C33.251 31.291 33.2535 29.3196 32.0709 29.3196C30.8908 29.3196 30.8883 31.291 32.0709 31.291Z" fill="#F2F8FD"/>
<path fill-rule="evenodd" clip-rule="evenodd" d="M46.7463 53.6333C47.9264 53.6333 47.9289 51.6619 46.7463 51.6619C45.5661 51.6619 45.5637 53.6333 46.7463 53.6333Z" fill="#F2F8FD"/>
<path fill-rule="evenodd" clip-rule="evenodd" d="M57.7527 41.805C58.9328 41.805 58.9353 39.8336 57.7527 39.8336C56.5726 39.8336 56.5701 41.805 57.7527 41.805Z" fill="#F2F8FD"/>
<path fill-rule="evenodd" clip-rule="evenodd" d="M65.4606 3.11401C66.6407 3.11401 66.6432 1.14263 65.4606 1.14263C64.2804 1.14263 64.278 3.11401 65.4606 3.11401Z" fill="#F2F8FD"/>
<path fill-rule="evenodd" clip-rule="evenodd" d="M77.3197 49.6905C78.4998 49.6905 78.5023 47.7192 77.3197 47.7192C76.1396 47.7192 76.1371 49.6905 77.3197 49.6905Z" fill="#F2F8FD"/>
<path fill-rule="evenodd" clip-rule="evenodd" d="M30.848 94.3751C32.0281 94.3751 32.0306 92.4037 30.848 92.4037C29.6679 92.4037 29.6654 94.3751 30.848 94.3751Z" fill="#F2F8FD"/>
<path fill-rule="evenodd" clip-rule="evenodd" d="M56.5298 126.574C57.7099 126.574 57.7124 124.603 56.5298 124.603C55.3497 124.603 55.3472 126.574 56.5298 126.574Z" fill="#F2F8FD"/>
<path fill-rule="evenodd" clip-rule="evenodd" d="M58.9756 87.1467C60.1557 87.1467 60.1582 85.1754 58.9756 85.1754C57.7955 85.1754 57.793 87.1467 58.9756 87.1467Z" fill="#F2F8FD"/>
<path fill-rule="evenodd" clip-rule="evenodd" d="M74.8739 123.946C76.054 123.946 76.0565 121.974 74.8739 121.974C73.6938 121.974 73.6913 123.946 74.8739 123.946Z" fill="#F2F8FD"/>
<path fill-rule="evenodd" clip-rule="evenodd" d="M23.5103 151.545C24.6904 151.545 24.6929 149.574 23.5103 149.574C22.3302 149.574 22.3277 151.545 23.5103 151.545Z" fill="#F2F8FD"/>
<path fill-rule="evenodd" clip-rule="evenodd" d="M2.72038 194.915C3.90052 194.915 3.90297 192.944 2.72038 192.944C1.54024 192.944 1.5378 194.915 2.72038 194.915Z" fill="#F2F8FD"/>
<path fill-rule="evenodd" clip-rule="evenodd" d="M25.9564 221.2C27.1365 221.2 27.1389 219.229 25.9564 219.229C24.7762 219.229 24.7738 221.2 25.9564 221.2Z" fill="#F2F8FD"/>
<path fill-rule="evenodd" clip-rule="evenodd" d="M41.8547 200.172C43.0348 200.172 43.0372 198.201 41.8547 198.201C40.6745 198.201 40.6721 200.172 41.8547 200.172Z" fill="#F2F8FD"/>
<path fill-rule="evenodd" clip-rule="evenodd" d="M25.3449 191.63C26.525 191.63 26.5275 189.658 25.3449 189.658C24.1648 189.658 24.1623 191.63 25.3449 191.63Z" fill="#F2F8FD"/>
<path fill-rule="evenodd" clip-rule="evenodd" d="M7.61226 223.172C8.7924 223.172 8.79484 221.2 7.61226 221.2C6.43212 221.2 6.42967 223.172 7.61226 223.172Z" fill="#F2F8FD"/>
<path fill-rule="evenodd" clip-rule="evenodd" d="M47.9692 233.029C49.1493 233.029 49.1518 231.057 47.9692 231.057C46.7891 231.057 46.7866 233.029 47.9692 233.029Z" fill="#F2F8FD"/>
<path fill-rule="evenodd" clip-rule="evenodd" d="M55.9183 211.343C57.0985 211.343 57.1009 209.372 55.9183 209.372C54.7382 209.372 54.7358 211.343 55.9183 211.343Z" fill="#F2F8FD"/>
<path fill-rule="evenodd" clip-rule="evenodd" d="M88.3264 230.4C89.5065 230.4 89.509 228.429 88.3264 228.429C87.1462 228.429 87.1438 230.4 88.3264 230.4Z" fill="#F2F8FD"/>
<path fill-rule="evenodd" clip-rule="evenodd" d="M2.72038 167.316C3.90052 167.316 3.90297 165.345 2.72038 165.345C1.54024 165.345 1.5378 167.316 2.72038 167.316Z" fill="#F2F8FD"/>
<path fill-rule="evenodd" clip-rule="evenodd" d="M41.243 142.345C42.4231 142.345 42.4255 140.374 41.243 140.374C40.0628 140.374 40.0604 142.345 41.243 142.345Z" fill="#F2F8FD"/>
<path fill-rule="evenodd" clip-rule="evenodd" d="M33.2941 120.003C34.4742 120.003 34.4766 118.032 33.2941 118.032C32.1139 118.032 32.1115 120.003 33.2941 120.003Z" fill="#F2F8FD"/>
<path fill-rule="evenodd" clip-rule="evenodd" d="M13.1153 125.917C14.2955 125.917 14.2979 123.946 13.1153 123.946C11.9352 123.946 11.9328 125.917 13.1153 125.917Z" fill="#F2F8FD"/>
<path fill-rule="evenodd" clip-rule="evenodd" d="M10.0581 91.7466C11.2382 91.7466 11.2407 89.7752 10.0581 89.7752C8.87794 89.7752 8.87549 91.7466 10.0581 91.7466Z" fill="#F2F8FD"/>
<path fill-rule="evenodd" clip-rule="evenodd" d="M27.7907 73.3471C28.9709 73.3471 28.9733 71.3757 27.7907 71.3757C26.6106 71.3757 26.6081 73.3471 27.7907 73.3471Z" fill="#F2F8FD"/>
<path fill-rule="evenodd" clip-rule="evenodd" d="M18.6187 51.6619C19.7988 51.6619 19.8013 49.6905 18.6187 49.6905C17.4385 49.6905 17.4361 51.6619 18.6187 51.6619Z" fill="#F2F8FD"/>
<path fill-rule="evenodd" clip-rule="evenodd" d="M2.10893 68.0901C3.28907 68.0901 3.29151 66.1187 2.10893 66.1187C0.928791 66.1187 0.926345 68.0901 2.10893 68.0901Z" fill="#F2F8FD"/>
<path fill-rule="evenodd" clip-rule="evenodd" d="M0.886021 25.3769C2.06616 25.3769 2.0686 23.4055 0.886021 23.4055C-0.294117 23.4055 -0.296563 25.3769 0.886021 25.3769Z" fill="#F2F8FD"/>
<path fill-rule="evenodd" clip-rule="evenodd" d="M30.4534 11.7415C31.6335 11.7415 31.636 9.77014 30.4534 9.77014C29.2732 9.77014 29.2708 11.7415 30.4534 11.7415Z" fill="#F2F8FD"/>
<path fill-rule="evenodd" clip-rule="evenodd" d="M84.6574 15.52C85.8375 15.52 85.84 13.5486 84.6574 13.5486C83.4773 13.5486 83.4748 15.52 84.6574 15.52Z" fill="#F2F8FD"/>
<path fill-rule="evenodd" clip-rule="evenodd" d="M289.5 204.772C290.681 204.772 290.683 202.801 289.5 202.801C288.319 202.801 288.317 204.772 289.5 204.772Z" fill="#F2F8FD"/>
<path fill-rule="evenodd" clip-rule="evenodd" d="M105.447 118.689C106.627 118.689 106.63 116.717 105.447 116.717C104.267 116.717 104.265 118.689 105.447 118.689Z" fill="#F2F8FD"/>
<path fill-rule="evenodd" clip-rule="evenodd" d="M80.3772 132.488C81.5574 132.488 81.5598 130.517 80.3772 130.517C79.1971 130.517 79.1946 132.488 80.3772 132.488Z" fill="#F2F8FD"/>
<path fill-rule="evenodd" clip-rule="evenodd" d="M195.333 92.4037C196.514 92.4037 196.516 90.4323 195.333 90.4323C194.153 90.4323 194.151 92.4037 195.333 92.4037Z" fill="#F2F8FD"/>
<path fill-rule="evenodd" clip-rule="evenodd" d="M197.168 109.489C198.349 109.489 198.351 107.518 197.168 107.518C195.987 107.518 195.985 109.489 197.168 109.489Z" fill="#F2F8FD"/>
<path fill-rule="evenodd" clip-rule="evenodd" d="M217.347 131.831C218.527 131.831 218.529 129.86 217.347 129.86C216.166 129.86 216.164 131.831 217.347 131.831Z" fill="#F2F8FD"/>
<path fill-rule="evenodd" clip-rule="evenodd" d="M71.7474 79.4085L65.5416 75.8442L71.992 69.0403L81.5315 74.3742L71.7474 79.4085Z" fill="#F52D56"/>
<path fill-rule="evenodd" clip-rule="evenodd" d="M121.046 114.072L116.657 114.398L116.189 111.548L119.286 109.355L121.046 114.072Z" fill="#23BBB8"/>
<path fill-rule="evenodd" clip-rule="evenodd" d="M59.479 155.087L55.0886 155.411L54.6209 152.563L57.7155 150.369L59.479 155.087Z" fill="#23BBB8"/>
<path fill-rule="evenodd" clip-rule="evenodd" d="M123.663 90.502L119.272 90.8266L118.809 87.9767L121.9 85.7825L123.663 90.502Z" fill="#23BBB8"/>
<path fill-rule="evenodd" clip-rule="evenodd" d="M35.2892 89.3074L30.897 89.6314L30.4335 86.7834L33.5269 84.5886L35.2892 89.3074Z" fill="#23BBB8"/>
<path fill-rule="evenodd" clip-rule="evenodd" d="M170.546 168.998L166.155 169.322L165.691 166.474L168.784 164.278L170.546 168.998Z" fill="#23BBB8"/>
<path fill-rule="evenodd" clip-rule="evenodd" d="M102.963 63.8467L98.5718 64.1693L98.1059 61.3227L101.203 59.1265L102.963 63.8467Z" fill="#23BBB8"/>
<path fill-rule="evenodd" clip-rule="evenodd" d="M183.443 125.902L179.054 126.227L178.589 123.379L181.682 121.185L183.443 125.902Z" fill="#23BBB8"/>
<path fill-rule="evenodd" clip-rule="evenodd" d="M201.561 81.7726L197.17 82.0966L196.706 79.2492L199.798 77.0544L201.561 81.7726Z" fill="#23BBB8"/>
<path fill-rule="evenodd" clip-rule="evenodd" d="M161.231 186.798L156.84 187.121L156.374 184.275L159.469 182.079L161.231 186.798Z" fill="#23BBB8"/>
<path fill-rule="evenodd" clip-rule="evenodd" d="M146.384 111.719L146.609 114.65L143.317 113.013L143.104 109.102L146.384 111.719Z" fill="#EB008B"/>
<path fill-rule="evenodd" clip-rule="evenodd" d="M26.0033 133.382L23.4467 134.833L23.5268 131.16L26.9731 129.298L26.0033 133.382Z" fill="#EB008B"/>
<path fill-rule="evenodd" clip-rule="evenodd" d="M148.542 214.984L145.982 216.438L146.067 212.764L149.512 210.903L148.542 214.984Z" fill="#EB008B"/>
<path fill-rule="evenodd" clip-rule="evenodd" d="M78.0134 105.963L75.2972 107.097L75.8261 103.459L79.4711 102.029L78.0134 105.963Z" fill="#EB008B"/>
<path fill-rule="evenodd" clip-rule="evenodd" d="M122.725 179.435L125.667 179.396L123.819 182.575L119.902 182.542L122.725 179.435Z" fill="#EB008B"/>
<path fill-rule="evenodd" clip-rule="evenodd" d="M102.864 185.991L98.4813 187.536L97.229 182.754L102.523 180.945L102.864 185.991Z" fill="#FFD200"/>
<path fill-rule="evenodd" clip-rule="evenodd" d="M74.6277 125.261L74.8821 129.9L69.9378 129.759L69.684 124.172L74.6277 125.261Z" fill="#FFD200"/>
<path fill-rule="evenodd" clip-rule="evenodd" d="M49.5932 61.9456L45.2084 63.4911L43.9573 58.7079L49.252 56.8982L49.5932 61.9456Z" fill="#FFD200"/>
<path fill-rule="evenodd" clip-rule="evenodd" d="M134.094 58.6374L129.712 60.181L128.458 55.3984L133.753 53.5913L134.094 58.6374Z" fill="#FFD200"/>
<path fill-rule="evenodd" clip-rule="evenodd" d="M103.642 90.9438L99.2594 92.4893L98.0089 87.7074L103.301 85.8997L103.642 90.9438Z" fill="#FFD200"/>
<path fill-rule="evenodd" clip-rule="evenodd" d="M193.44 156.033L189.058 157.578L187.807 152.797L193.099 150.985L193.44 156.033Z" fill="#FFD200"/>
<path fill-rule="evenodd" clip-rule="evenodd" d="M86.5575 160.618L83.239 157.391L88.878 154.341L94.0003 159.214L86.5575 160.618Z" fill="#1B75BB"/>
<path fill-rule="evenodd" clip-rule="evenodd" d="M51.3974 119.26L48.0753 115.62L53.7375 112.514L58.8696 118.015L51.3974 119.26Z" fill="#F52D56"/>
<path fill-rule="evenodd" clip-rule="evenodd" d="M27.9633 170.652L28.4824 166.8L33.228 168.652L32.4992 174.539L27.9633 170.652Z" fill="#F52D56"/>
<path fill-rule="evenodd" clip-rule="evenodd" d="M182.013 59.232L184.937 56.6745L187.294 61.1896L182.869 65.1435L182.013 59.232Z" fill="#F52D56"/>
<path fill-rule="evenodd" clip-rule="evenodd" d="M210.906 59.232L213.829 56.6745L216.188 61.1896L211.762 65.1435L210.906 59.232Z" fill="#1B75BB"/>
<path fill-rule="evenodd" clip-rule="evenodd" d="M124.551 161.77L119.07 164.247L119.237 156.848L126.498 153.556L124.551 161.77Z" fill="#EB008B"/>
<path fill-rule="evenodd" clip-rule="evenodd" d="M231.619 115.383L226.136 117.86L226.305 110.461L233.565 107.169L231.619 115.383Z" fill="#F52D56"/>
<path fill-rule="evenodd" clip-rule="evenodd" d="M200.265 104.289L200.056 109.778L194.07 106.629L194.335 99.3472L200.265 104.289Z" fill="#F52D56"/>
<path fill-rule="evenodd" clip-rule="evenodd" d="M79.9108 181.491L71.091 184.6L68.5717 174.974L79.2254 171.334L79.9108 181.491Z" fill="#FFD200"/>
<path fill-rule="evenodd" clip-rule="evenodd" d="M288.232 181.923L282.934 182.313L282.371 178.877L286.107 176.225L288.232 181.923Z" fill="#23BBB8"/>
<path fill-rule="evenodd" clip-rule="evenodd" d="M240.448 193.675L235.151 194.068L238.324 187.982L240.448 193.675Z" fill="#23BBB8"/>
<path fill-rule="evenodd" clip-rule="evenodd" d="M234.575 166.365L229.275 166.756L228.716 163.317L232.447 160.668L234.575 166.365Z" fill="#23BBB8"/>
<path fill-rule="evenodd" clip-rule="evenodd" d="M209.59 134.192L204.289 134.581L203.727 131.145L207.464 128.495L209.59 134.192Z" fill="#23BBB8"/>
<path fill-rule="evenodd" clip-rule="evenodd" d="M117.262 93.4671L111.965 93.8587L111.403 90.4213L115.138 87.7724L117.262 93.4671Z" fill="#23BBB8"/>
<path fill-rule="evenodd" clip-rule="evenodd" d="M139.131 40.2023L133.831 40.5933L133.27 37.1565L137.003 34.507L139.131 40.2023Z" fill="#23BBB8"/>
<path fill-rule="evenodd" clip-rule="evenodd" d="M255.916 174.86L256.187 178.398L252.213 176.422L251.955 171.701L255.916 174.86Z" fill="#F52D56"/>
<path fill-rule="evenodd" clip-rule="evenodd" d="M254.856 157.103L251.767 158.857L251.866 154.422L256.028 152.176L254.856 157.103Z" fill="#F52D56"/>
<path fill-rule="evenodd" clip-rule="evenodd" d="M151.289 57.5058L148.199 59.259L148.299 54.8241L152.46 52.5787L151.289 57.5058Z" fill="#F52D56"/>
<path fill-rule="evenodd" clip-rule="evenodd" d="M247.165 127.904L241.877 129.767L240.363 123.995L246.755 121.813L247.165 127.904Z" fill="#FFD200"/>
<path fill-rule="evenodd" clip-rule="evenodd" d="M219.587 189.647L214.297 191.513L212.788 185.741L219.175 183.559L219.587 189.647Z" fill="#FFD200"/>
<path fill-rule="evenodd" clip-rule="evenodd" d="M150.41 12.9958L153.939 9.90926L156.785 15.3582L151.443 20.1309L150.41 12.9958Z" fill="#F52D56"/>
<path fill-rule="evenodd" clip-rule="evenodd" d="M221.399 208.737L210.734 209.523L209.603 202.608L217.116 197.277L221.399 208.737Z" fill="#007AFF"/>
<path fill-rule="evenodd" clip-rule="evenodd" d="M272.575 135.838L272.323 142.464L265.097 138.663L265.415 129.874L272.575 135.838Z" fill="#F52D56"/>
<path fill-rule="evenodd" clip-rule="evenodd" d="M102.963 203.756L98.5718 204.078L98.1059 201.23L101.203 199.034L102.963 203.756Z" fill="#23BBB8"/>
<path fill-rule="evenodd" clip-rule="evenodd" d="M77.9261 210.581L73.5358 210.903L73.0692 208.057L76.1645 205.86L77.9261 210.581Z" fill="#23BBB8"/>
<path fill-rule="evenodd" clip-rule="evenodd" d="M49.5932 201.854L45.2084 203.4L43.9573 198.617L49.252 196.806L49.5932 201.854Z" fill="#FFD200"/>
<path fill-rule="evenodd" clip-rule="evenodd" d="M134.094 198.546L129.712 200.09L128.458 195.307L133.753 193.5L134.094 198.546Z" fill="#FFD200"/>
<path fill-rule="evenodd" clip-rule="evenodd" d="M94.2165 179.676C94.2165 179.676 95.0652 180.678 94.1633 183.151C93.2559 185.638 89.1493 200.114 93.0761 202.092C93.0761 202.092 89.0594 204.052 85.5514 199.264C81.9431 194.337 86.8471 180.303 90.7678 177.562L94.2165 179.676Z" fill="#4252FF"/>
<path fill-rule="evenodd" clip-rule="evenodd" d="M73.6791 169.726C72.6536 172.373 68.034 187.862 72.5937 190.183C72.5937 190.183 67.9649 192.126 63.8552 186.772C59.6177 181.254 63.6137 169.57 67.735 162.894L73.6791 169.726Z" fill="#4252FF"/>
<path fill-rule="evenodd" clip-rule="evenodd" d="M94.2165 179.676L87.4023 175.247C87.4023 175.247 75.6639 194.606 65.4915 188.484C65.4915 188.484 76.3029 197.914 85.072 189.672C93.3935 181.846 94.2165 179.676 94.2165 179.676Z" fill="#A1A9FF"/>
<path fill-rule="evenodd" clip-rule="evenodd" d="M84.3694 196.612C84.3694 196.612 86.3652 202.819 95.7776 199.816C106.152 196.65 111.074 211.899 111.074 211.899L106.578 219.804C106.578 219.804 107.348 204.368 98.3073 204.44C88.5843 204.515 86.6673 203.24 84.3694 196.612Z" fill="#A1A9FF"/>
<path fill-rule="evenodd" clip-rule="evenodd" d="M189.613 169.581C189.613 169.581 189.021 170.538 190.071 172.487C191.127 174.447 196.29 186.019 193.233 188.215C193.233 188.215 196.833 189.307 199.204 184.813C201.643 180.187 195.865 169.096 192.253 167.336L189.613 169.581Z" fill="#FFCC00"/>
<path fill-rule="evenodd" clip-rule="evenodd" d="M205.647 158.421C206.821 160.5 212.535 172.851 208.988 175.422C208.988 175.422 213.099 176.415 215.908 171.364C218.804 166.155 214.067 156.91 209.818 151.879L205.647 158.421Z" fill="#FFCC00"/>
<path fill-rule="evenodd" clip-rule="evenodd" d="M189.613 169.581L194.799 164.933C194.799 164.933 206.94 179.55 214.74 173.023C214.74 173.023 206.797 182.411 198.466 176.705C190.561 171.288 189.613 169.581 189.613 169.581Z" fill="#E89A24"/>
<path fill-rule="evenodd" clip-rule="evenodd" d="M199.88 182.427C199.88 182.427 198.945 187.905 190.698 186.678C181.625 185.448 179.309 198.906 179.309 198.906L184.018 204.917C184.018 204.917 181.539 192.082 189.125 190.902C197.287 189.631 198.742 188.299 199.88 182.427Z" fill="#E89A24"/>
<path fill-rule="evenodd" clip-rule="evenodd" d="M224.533 89.8458L219.909 88.8069L221.954 93.3845L219.606 97.7905L224.29 97.113L227.95 86.3394L224.533 89.8458Z" fill="#FF9500"/>
<path fill-rule="evenodd" clip-rule="evenodd" d="M64.5001 3.50642L59.8756 2.46751L61.921 7.04505L59.5735 11.4511L64.2568 10.7736L67.917 0L64.5001 3.50642Z" fill="#FF9500"/>
<path fill-rule="evenodd" clip-rule="evenodd" d="M228.629 95.8789L232.939 93.7971L228.779 91.3875L228.268 86.3394L224.607 97.113L227.782 100.874L228.629 95.8789Z" fill="#FFCC00"/>
<path fill-rule="evenodd" clip-rule="evenodd" d="M68.5962 9.5395L72.9058 7.45772L68.746 5.04804L68.2348 0L64.5746 10.7736L67.7487 14.5343L68.5962 9.5395Z" fill="#FFCC00"/>
<path fill-rule="evenodd" clip-rule="evenodd" d="M213.169 29.3148L209.823 28.5736L211.303 31.8391L209.604 34.9821L212.992 34.4988L215.64 26.8134L213.169 29.3148Z" fill="#FF9500"/>
<path fill-rule="evenodd" clip-rule="evenodd" d="M216.132 33.6185L219.25 32.1334L216.24 30.4145L215.87 26.8134L213.222 34.4988L215.519 37.1816L216.132 33.6185Z" fill="#FFCC00"/>
<path fill-rule="evenodd" clip-rule="evenodd" d="M40.1329 138.237L36.7873 137.496L38.267 140.762L36.5688 143.905L39.9569 143.421L42.6049 135.736L40.1329 138.237Z" fill="#FF9500"/>
<path fill-rule="evenodd" clip-rule="evenodd" d="M43.0962 142.541L46.2139 141.056L43.2045 139.337L42.8347 135.736L40.1867 143.421L42.483 146.104L43.0962 142.541Z" fill="#FFCC00"/>
</svg>
