<svg width="81" height="50" viewBox="0 0 81 50" fill="none" xmlns="http://www.w3.org/2000/svg">
<path fill-rule="evenodd" clip-rule="evenodd" d="M0 28.6648C0 28.6648 16.391 48.8815 36.1935 49.5995C40.7899 49.0804 42.8764 47.6417 42.8764 47.6417L14.3033 27.929C15.7023 21.3881 18.8194 15.4044 23.293 10.6756C25.1629 8.69809 23.1412 5.41451 20.6893 6.4469L12.5025 9.89523L4.10331 18.6033L0 28.6648Z" fill="#E89A24"/>
<path fill-rule="evenodd" clip-rule="evenodd" d="M40.7902 49.0804L24.7015 18.329C24.3701 17.6943 23.7808 17.2644 23.105 17.1594C21.066 16.8431 16.3956 16.5346 10.8056 18.8954C3.26919 22.0779 0.000245531 28.6648 0.000245531 28.6648L4.10355 18.6033C5.26931 15.7451 6.96704 13.1677 9.09491 11.0261C13.0433 7.05205 18.0014 4.39657 23.355 3.38845L28.1723 2.48141C30.1737 2.10468 32.13 3.35695 32.7545 5.41452L45.1008 46.1079L40.7902 49.0804Z" fill="#F2BB4E"/>
<path fill-rule="evenodd" clip-rule="evenodd" d="M81.0001 19.5141C81.0001 19.5141 68.9685 42.9422 49.7491 48.0681C45.1527 48.5872 42.828 47.6467 42.828 47.6467L66.8702 21.9904C64.211 15.9083 59.9806 10.7541 54.6732 7.13059C52.454 5.61514 53.7821 1.95285 56.3833 2.4149L65.0694 3.95661L75.0003 10.594L81.0001 19.5141Z" fill="#E89A24"/>
<path fill-rule="evenodd" clip-rule="evenodd" d="M45.1527 48.5875L54.8078 14.9273C55.0065 14.2335 55.4983 13.6816 56.1377 13.4282C58.0687 12.6629 62.5737 11.3175 68.5062 12.3768C76.503 13.8049 81.0001 19.5143 81.0001 19.5143L75.0003 10.5936C73.2964 8.05949 71.1272 5.91922 68.6235 4.30072C63.9783 1.29739 58.6062 -0.190496 53.173 0.0195276L48.2841 0.209861C46.2525 0.28862 44.5874 1.94912 44.3838 4.10055L40.3508 46.6447L45.1527 48.5875Z" fill="#F2BB4E"/>
</svg>
