<svg width="19" height="27" viewBox="0 0 19 27" fill="none" xmlns="http://www.w3.org/2000/svg">
<path fill-rule="evenodd" clip-rule="evenodd" d="M9.33893 27C10.2865 27 14.7989 20.7011 15.9115 18.6947C17.6219 15.6104 18.6779 13.7857 18.6779 10.3807C18.6779 4.64761 14.4967 0 9.33893 0C4.18118 0 0 4.64761 0 10.3807C0 13.8034 0.97846 15.6159 2.68312 18.6947C3.87123 20.8405 8.39136 27 9.33893 27ZM9.33891 15.5711C11.9178 15.5711 14.0084 13.2473 14.0084 10.3807C14.0084 7.51415 11.9178 5.19035 9.33891 5.19035C6.76003 5.19035 4.66944 7.51415 4.66944 10.3807C4.66944 13.2473 6.76003 15.5711 9.33891 15.5711Z" fill="#F52D56"/>
</svg>
