<svg width="50" height="26" viewBox="0 0 50 26" fill="none" xmlns="http://www.w3.org/2000/svg">
<path d="M9.60213 17.4744C7.50292 17.4744 5.80042 19.3177 5.80042 21.5936C5.80042 21.7701 5.8135 21.9429 5.83361 22.1118C6.06943 24.1436 7.66483 25.7139 9.60163 25.7139C11.5922 25.7139 13.2228 24.0564 13.3878 21.9456C13.3968 21.829 13.4043 21.7124 13.4043 21.5936C13.4048 19.3177 11.7029 17.4744 9.60213 17.4744Z" fill="#242E42"/>
<path d="M42.2182 17.4744C40.1185 17.4744 38.4165 19.3177 38.4165 21.5936C38.4165 21.7701 38.429 21.9429 38.4491 22.1118C38.6845 24.1436 40.2809 25.7139 42.2172 25.7139C44.2073 25.7139 45.8379 24.0564 46.0033 21.9456C46.0123 21.829 46.0189 21.7124 46.0189 21.5936C46.0199 19.3177 44.3184 17.4744 42.2182 17.4744Z" fill="#242E42"/>
<path fill-rule="evenodd" clip-rule="evenodd" d="M35.3931 0.338801C35.2023 0.123343 34.9283 0 34.6405 0H28.1777L23.1412 4.89973C22.3912 5.00146 21.7425 5.1258 21.2254 5.27646C18.2378 6.1477 10.6987 11.5184 10.6987 11.5184C10.6987 11.5184 2.40395 12.9106 0.821618 17.0101C0.821618 17.0101 0.138809 17.4422 0.0146163 18.5499C-0.0492399 19.1198 0.10663 19.9851 0.278589 20.7103C0.467141 21.5036 1.07403 22.1008 1.82069 22.2267L5.42078 22.838C5.36697 22.625 5.32223 22.4086 5.29608 22.1852C5.27345 21.9924 5.25837 21.7951 5.25837 21.593C5.25837 18.9978 7.20674 16.887 9.6021 16.887C11.998 16.887 13.9463 18.9978 13.9463 21.593C13.9463 21.7287 13.9383 21.8616 13.9282 21.9935C13.892 22.4533 13.7935 22.893 13.6431 23.3055L14.0665 23.33L37.9839 22.6288C37.9533 22.4827 37.9291 22.3356 37.911 22.1852C37.8879 21.9924 37.8738 21.7951 37.8738 21.593C37.8738 18.9978 39.8222 16.887 42.217 16.887C44.6129 16.887 46.5613 18.9978 46.5613 21.593C46.5613 21.7287 46.5532 21.8616 46.5427 21.9935C46.5382 22.0526 46.5303 22.1106 46.5224 22.1686L46.5224 22.1687L46.5224 22.1688C46.5186 22.1962 46.5149 22.2236 46.5115 22.2512L48.5755 21.7946C49.4268 21.6061 50.0291 20.7811 49.999 19.8391L49.8235 14.1332C49.7953 13.2233 49.564 12.3346 49.1502 11.5429L46.42 6.3226C45.9725 5.46771 45.1524 4.92066 44.2469 4.87108C43.0779 4.8076 41.2918 4.71902 39.2067 4.64376L35.3931 0.338801ZM36.1588 4.55183C34.5553 4.47097 32.6818 4.3963 31.4307 4.40973C30.6151 4.41849 29.4912 4.47086 28.3339 4.53852C30.836 4.46818 33.5927 4.49056 36.1588 4.55183ZM36.6083 11.7804L36.0587 5.83542C33.4547 5.77167 30.64 5.74388 28.1743 5.80545V12.1542L36.6083 11.7804ZM14.7758 12.5792L13.9416 12.6298C13.7149 12.6435 13.5072 12.4942 13.4308 12.2621C13.3544 12.031 13.4283 11.7733 13.6108 11.6278C14.101 11.2399 14.7014 10.7762 15.3701 10.2864V11.8033C14.9628 12.1765 14.7758 12.5792 14.7758 12.5792ZM16.7577 11.1995C16.7851 11.1942 16.8124 11.1889 16.843 11.1877C18.3232 11.1277 18.5746 12.5793 18.5746 12.5793L25.8211 12.2583V5.90085C24.1115 6.00165 22.7359 6.17056 21.9816 6.43482C20.3244 7.01619 18.3971 8.17621 16.6967 9.3444V11.2095C16.7179 11.2072 16.7378 11.2033 16.7577 11.1995ZM46.1413 10.6111C45.8884 11.0873 45.4278 11.3897 44.9215 11.4126L38.9622 11.6763L38.4282 5.90405C40.891 5.98523 42.9485 6.08549 43.9908 6.14651C44.473 6.1743 44.9079 6.47561 45.1326 6.93874L46.1669 9.06535C46.4037 9.55192 46.3937 10.136 46.1413 10.6111Z" fill="#242E42"/>
</svg>
