<svg width="50" height="20" viewBox="0 0 50 20" fill="none" xmlns="http://www.w3.org/2000/svg">
<path d="M7.02335 12.8117C5.19109 12.8308 3.72055 14.4549 3.73768 16.4399C3.73919 16.5933 3.75229 16.7434 3.77093 16.8908C3.99159 18.6612 5.39613 20.0179 7.08632 19.9998C8.82386 19.9829 10.2329 18.522 10.3609 16.6779C10.368 16.5769 10.3735 16.4748 10.3725 16.3711C10.3554 14.3867 8.8556 12.7931 7.02335 12.8117Z" fill="#010101"/>
<path d="M39.1267 12.8117C37.2944 12.8308 35.8234 14.4549 35.8415 16.4399C35.8425 16.5933 35.8556 16.7434 35.8742 16.8908C36.0949 18.6612 37.4995 20.0179 39.1896 19.9998C40.9272 19.9829 42.3363 18.522 42.4642 16.6779C42.4713 16.5769 42.4768 16.4748 42.4758 16.3711C42.4582 14.3867 40.9589 12.7931 39.1267 12.8117Z" fill="#010101"/>
<path fill-rule="evenodd" clip-rule="evenodd" d="M48.3978 13.6121L49.5424 14.1563C49.7848 14.2715 49.9419 14.5319 49.9424 14.8207V15.3661C49.9424 15.7652 49.6437 16.0895 49.2754 16.0895H47.4679V16.7833C47.4679 16.9313 47.3565 17.0519 47.22 17.0519H46.6593C46.5223 17.0519 46.4109 16.9313 46.4109 16.7833V16.1353L43.2265 16.7053C43.2265 16.7053 43.2396 16.4798 43.2381 16.3657C43.218 13.9511 41.3882 11.9874 39.1202 11.9874C36.8708 12.0109 35.0587 14.0128 35.0799 16.4498C35.0804 16.4934 35.0889 16.5731 35.0889 16.5731L11.1205 16.7424C11.1205 16.7424 11.1351 16.4929 11.1341 16.3668C11.1134 13.9522 9.2837 11.9885 7.01567 11.9885C4.76679 12.0119 2.95468 14.0139 2.97584 16.4509C2.97652 16.5128 2.98209 16.5727 2.98764 16.6324C2.99026 16.6607 2.99288 16.6889 2.99498 16.7173C1.71739 16.679 0.923936 16.6261 0.825195 16.548C0.151135 16.0196 0 15.1718 0 15.1718V13.7136C0 13.4903 0.13451 13.2932 0.331489 13.2299L0.824691 13.0689C0.824691 13.0689 0.809074 10.4512 0.803532 9.57877C0.797991 8.59447 1.40656 7.85802 2.70027 7.59161C4.18441 7.28589 8.64691 6.43152 8.64691 6.43152C8.64691 6.43152 12.5553 2.72634 14.0706 1.39865C14.4298 1.0842 14.8596 0.874018 15.3145 0.787762C20.5765 -0.204727 42.4326 -0.343392 46.1893 0.858186C46.4331 0.936253 46.6356 1.12187 46.7485 1.36917C49.3953 7.18053 48.3978 13.6121 48.3978 13.6121ZM18.6744 6.97964C18.8305 6.97964 18.9595 6.84807 18.9691 6.67938L19.2416 2.003C19.2461 1.91347 19.2169 1.82558 19.1595 1.76116C19.1021 1.69674 19.0225 1.66071 18.9398 1.66234L15.7585 1.73441C15.4325 1.7415 15.1197 1.87798 14.8794 2.1171L12.8607 4.13046C12.8607 4.13046 13.0995 4.36794 13.1464 4.99302C13.1761 5.391 13.17 6.97964 13.17 6.97964H18.6744Z" fill="#010101"/>
</svg>
